<?xml version="1.0" standalone="no"?>
<!DOCTYPE svg PUBLIC "-//W3C//DTD SVG 20010904//EN"
 "http://www.w3.org/TR/2001/REC-SVG-20010904/DTD/svg10.dtd">
<svg version="1.0" xmlns="http://www.w3.org/2000/svg"
 width="1536.000000pt" height="1024.000000pt" viewBox="0 0 1536.000000 1024.000000"
 preserveAspectRatio="xMidYMid meet">

<g transform="translate(0.000000,1024.000000) scale(0.100000,-0.100000)"
fill="#000000" stroke="none">
<path d="M7570 7561 c-64 -58 -170 -154 -235 -212 -204 -181 -299 -286 -406
-448 l-15 -24 -193 117 c-107 64 -196 115 -198 112 -18 -18 -72 -296 -73 -374
0 -8 -16 -2 -42 15 -68 43 -252 126 -398 181 -152 57 -427 139 -436 129 -7 -7
-47 -257 -64 -397 -16 -135 -23 -518 -12 -630 5 -52 8 -96 8 -97 -1 -1 -44 20
-96 47 -143 73 -290 129 -438 166 -74 19 -140 34 -148 34 -17 0 -19 -137 -4
-345 18 -244 47 -373 121 -538 21 -48 39 -89 39 -92 0 -3 -28 -5 -62 -5 -83 0
-373 -31 -390 -41 -28 -18 111 -375 222 -569 167 -291 416 -548 704 -726 69
-43 126 -81 126 -85 0 -4 -9 -14 -19 -21 -10 -7 -81 -72 -157 -144 -77 -72
-160 -150 -186 -173 -27 -24 -48 -47 -48 -51 0 -11 193 -92 320 -134 369 -122
758 -136 1045 -37 86 30 153 62 197 93 l27 19 82 -67 c119 -96 172 -128 369
-220 263 -123 349 -173 432 -252 l37 -35 39 35 c75 68 168 122 391 231 212
102 364 192 455 270 l40 34 50 -29 c83 -49 206 -96 316 -119 140 -30 424 -32
575 -5 201 36 363 85 555 168 52 23 96 42 98 43 3 2 -58 61 -279 270 l-136
129 116 72 c360 225 659 566 818 934 48 111 101 255 118 322 13 47 13 47 -14
52 -55 12 -199 26 -318 32 -68 4 -123 9 -123 11 0 2 15 34 34 71 90 179 126
362 133 680 5 204 4 222 -11 222 -29 0 -250 -58 -327 -86 -91 -33 -241 -103
-297 -138 -24 -15 -45 -26 -47 -24 -2 2 1 80 7 173 13 210 0 450 -43 739 -16
111 -29 204 -29 209 0 13 -23 8 -183 -38 -222 -64 -573 -205 -656 -264 -43
-31 -51 -27 -51 28 0 61 -24 198 -47 274 l-18 57 -128 -72 c-70 -40 -159 -93
-197 -117 -39 -24 -72 -42 -73 -40 -97 162 -218 296 -461 512 -94 83 -200 179
-236 213 l-65 62 -115 -107z m231 -186 c62 -55 149 -132 194 -171 265 -233
413 -538 378 -779 -6 -42 -15 -81 -19 -85 -5 -5 -22 -10 -38 -12 -33 -3 -36 5
-52 117 -4 28 -8 46 -9 40 -42 -147 -45 -155 -70 -155 -29 0 -29 0 -50 165 -9
66 -19 136 -23 155 -8 34 -8 34 -21 -30 -14 -75 -68 -240 -82 -255 -6 -5 -9
-2 -9 10 0 89 -64 514 -76 503 -1 -2 -13 -69 -24 -148 -12 -80 -28 -172 -36
-205 -19 -78 -57 -185 -65 -185 -4 0 -9 23 -13 51 -4 29 -27 157 -52 286 -24
129 -44 240 -44 246 0 45 -25 -81 -80 -403 -30 -177 -31 -180 -39 -180 -7 0
-65 169 -80 235 -5 22 -19 100 -32 173 -12 73 -26 127 -30 120 -10 -18 -35
-186 -54 -357 -8 -80 -17 -147 -20 -149 -5 -6 -61 178 -76 253 -15 74 -24 86
-32 43 -24 -138 -57 -334 -57 -341 0 -4 -9 -3 -20 3 -12 6 -28 38 -44 88 l-24
77 -7 -40 c-21 -124 -19 -120 -50 -118 -15 1 -33 7 -39 13 -7 7 -11 60 -11
138 0 102 5 143 23 205 49 172 156 334 320 486 235 218 337 310 343 308 4 -1
58 -47 120 -102z m964 -580 c10 -116 2 -146 -52 -208 -26 -28 -49 -53 -52 -55
-4 -1 -5 31 -3 71 7 125 4 129 -47 58 -25 -33 -48 -61 -53 -61 -4 0 -8 29 -8
64 0 53 4 69 28 100 25 35 159 127 174 119 3 -2 9 -41 13 -88z m-2938 43 c147
-52 491 -224 600 -301 71 -50 194 -169 193 -186 -1 -3 -19 -15 -42 -26 -68
-33 -81 -68 -74 -205 l6 -115 -83 85 c-45 47 -102 107 -125 134 -23 27 -44 47
-46 45 -2 -2 14 -47 36 -99 22 -52 68 -171 103 -264 62 -164 62 -167 33 -140
-88 85 -237 287 -371 504 -21 34 -41 60 -43 57 -10 -10 110 -355 167 -479 32
-70 93 -192 137 -270 83 -150 132 -240 144 -271 11 -25 -46 17 -146 108 -128
118 -215 235 -327 444 -38 69 -69 120 -69 113 0 -33 45 -225 72 -307 51 -152
186 -428 287 -585 12 -18 2 -13 -37 19 -51 42 -180 187 -217 244 -10 15 -19
26 -21 24 -8 -8 59 -214 92 -286 19 -41 33 -76 31 -78 -7 -6 -132 150 -187
231 -114 171 -201 401 -247 656 -25 133 -27 167 -27 420 0 158 5 322 12 385
15 129 23 185 28 185 1 0 56 -19 121 -42z m864 2 c100 -60 119 -86 119 -171 0
-38 -4 -69 -9 -69 -5 0 -19 15 -30 33 -12 17 -32 46 -46 62 l-26 30 3 -98 c2
-53 0 -97 -4 -97 -9 0 -62 69 -82 107 -9 18 -16 55 -16 85 0 65 11 158 18 158
3 0 36 -18 73 -40z m2982 -7 c36 -274 35 -761 -1 -953 -53 -283 -129 -477
-263 -675 -51 -76 -128 -168 -162 -195 -19 -15 -16 -6 15 59 21 42 50 112 64
156 15 44 29 87 32 95 3 8 -39 -30 -94 -85 -91 -93 -190 -173 -200 -163 -2 2
41 67 96 144 104 145 187 293 220 390 11 31 20 58 20 58 0 1 -54 -52 -121
-117 -66 -65 -122 -117 -125 -115 -2 3 18 47 45 99 49 92 106 224 150 344 28
78 70 235 62 235 -3 -1 -33 -46 -66 -102 -92 -158 -209 -319 -300 -416 -79
-83 -146 -134 -161 -120 -3 4 66 152 154 330 89 178 174 357 191 398 16 41 37
93 45 115 l16 40 -36 -40 c-20 -22 -48 -56 -62 -75 -65 -86 -150 -190 -206
-250 -34 -36 -83 -91 -109 -123 -27 -31 -52 -57 -57 -57 -15 0 79 229 160 390
l32 65 -38 -35 c-22 -19 -87 -82 -146 -139 -59 -58 -110 -103 -113 -100 -3 3
6 39 20 79 14 40 25 78 25 84 0 6 -20 -10 -45 -34 -24 -24 -47 -41 -51 -37 -3
3 -9 35 -11 70 -5 59 -3 70 28 127 40 75 140 178 246 253 89 63 289 171 437
236 85 37 279 109 297 111 4 0 9 -21 12 -47z m-2581 -945 l3 -302 139 224 c76
124 159 260 185 302 l46 78 213 0 c175 0 212 -2 212 -14 0 -8 -50 -94 -111
-193 -62 -98 -162 -259 -223 -358 l-112 -181 47 -74 c26 -41 91 -151 146 -245
55 -93 139 -236 187 -317 58 -98 86 -157 86 -177 l0 -31 -213 0 -213 0 -39 73
c-21 39 -82 144 -135 232 -53 88 -117 198 -143 245 -82 152 -76 169 -77 -213
l0 -337 -217 2 -218 3 -3 793 -2 792 220 0 220 0 2 -302z m1368 -335 l-1 -638
276 -3 275 -2 0 -155 0 -155 -495 0 -495 0 0 795 0 795 220 0 220 0 0 -637z
m-3384 417 c150 -52 364 -171 427 -237 26 -28 90 -163 82 -172 -2 -2 -25 9
-50 23 -25 15 -45 25 -45 22 0 -3 31 -50 70 -105 38 -56 66 -101 62 -101 -12
0 -152 89 -214 136 -32 24 -58 41 -58 38 0 -24 166 -295 219 -358 59 -69 58
-70 -18 -31 -98 49 -144 79 -214 138 l-57 49 21 -54 c11 -29 31 -72 44 -95
l24 -43 -27 0 c-113 0 -218 101 -281 270 -45 120 -63 221 -68 383 -6 179 -12
169 83 137z m5304 -64 c0 -191 -44 -409 -106 -527 -67 -126 -131 -183 -222
-195 l-52 -7 40 87 c22 47 40 88 40 91 0 3 -26 -15 -57 -38 -78 -59 -246 -157
-268 -157 -3 0 23 37 58 83 65 83 219 328 212 336 -3 2 -37 -21 -77 -51 -40
-29 -95 -67 -123 -83 -27 -15 -61 -35 -75 -44 -13 -9 -21 -11 -18 -6 4 6 32
48 62 94 31 47 56 89 56 93 0 5 -13 1 -30 -8 -16 -10 -32 -15 -36 -11 -9 9 22
93 52 139 31 48 109 105 236 173 92 48 262 114 296 115 9 0 12 -23 12 -84z
m-5064 -861 c218 -29 374 -71 570 -155 219 -94 390 -208 629 -419 220 -195
277 -252 263 -268 -7 -9 -21 -12 -37 -8 -54 14 -1030 423 -1124 472 -53 27
-17 -6 125 -114 256 -196 524 -380 691 -473 32 -18 57 -34 55 -35 -6 -6 -144
26 -260 60 -240 71 -412 152 -677 317 -80 50 -157 98 -171 107 -37 22 33 -51
176 -184 257 -238 602 -440 953 -560 123 -42 120 -47 -24 -41 -395 15 -812
180 -1132 450 -215 180 -406 425 -548 701 -36 70 -64 133 -62 139 9 27 396 34
573 11z m5282 0 c12 -4 22 -13 22 -20 0 -21 -113 -235 -174 -330 -96 -147
-164 -234 -281 -354 -360 -370 -787 -569 -1286 -597 -73 -4 -119 -3 -119 2 0
6 39 23 88 38 209 68 543 238 725 368 100 72 214 169 337 289 108 105 111 118
12 51 -194 -131 -419 -253 -593 -322 -102 -41 -321 -102 -409 -114 l-45 -7 70
38 c159 87 803 540 831 584 4 7 3 10 -2 7 -5 -4 -74 -34 -154 -68 -80 -34
-221 -96 -315 -137 -228 -101 -381 -164 -555 -228 -128 -47 -147 -52 -160 -39
-13 13 -6 22 59 82 41 37 104 90 139 119 l65 51 98 4 c93 3 99 5 130 33 42 40
69 100 69 155 l0 46 93 62 c224 150 474 241 787 287 99 15 522 14 568 0z
m-2867 -619 c58 -65 115 -95 205 -106 113 -14 142 -33 182 -112 21 -41 38 -94
46 -144 6 -43 15 -74 18 -69 12 20 30 163 27 208 -2 26 -2 47 1 47 3 0 31 -22
61 -49 53 -47 119 -150 119 -185 0 -34 20 -14 21 22 0 20 4 46 8 57 7 17 11
14 41 -25 71 -98 83 -187 37 -275 -22 -42 -79 -115 -90 -115 -1 0 -1 30 0 68
4 65 -19 183 -29 152 -59 -185 -97 -255 -173 -312 -58 -44 -82 -50 -64 -16 34
63 50 225 33 331 -8 46 -24 49 -24 5 0 -50 -37 -193 -65 -252 -29 -62 -100
-147 -89 -107 19 69 -3 401 -27 401 -4 0 -10 -19 -14 -42 -20 -120 -101 -320
-158 -392 l-24 -29 -6 84 c-7 81 -72 477 -81 486 -9 9 -62 -345 -71 -479 l-7
-98 -34 45 c-58 76 -102 175 -133 300 -16 66 -32 113 -35 105 -15 -42 -36
-270 -30 -329 l7 -66 -22 19 c-52 47 -119 239 -122 348 0 18 -4 42 -8 52 -6
16 -10 10 -20 -28 -31 -125 -21 -268 25 -358 13 -25 13 -27 -3 -21 -98 36
-205 188 -220 313 -3 28 -9 53 -13 55 -14 9 -35 -90 -35 -162 0 -85 -11 -85
-68 -1 -43 64 -61 126 -52 182 8 49 48 126 81 157 l24 22 0 -56 c0 -60 13 -77
23 -29 10 49 71 135 122 174 28 21 53 38 58 38 4 0 7 -26 7 -58 0 -67 19 -174
30 -167 4 2 10 24 13 48 9 62 44 152 74 188 36 42 72 58 154 68 91 12 169 50
216 107 21 24 39 44 41 44 3 0 22 -20 43 -44z m-1757 -753 l110 -27 -98 -32
c-70 -23 -92 -33 -79 -39 10 -4 125 -9 257 -12 220 -6 237 -7 210 -21 -80 -42
-178 -75 -259 -86 l-90 -13 60 -13 c98 -21 255 -17 360 9 50 13 108 32 130 43
l40 19 -40 -36 c-70 -62 -219 -130 -330 -150 -118 -22 -354 -17 -480 10 -80
17 -309 88 -333 103 -19 13 150 170 229 213 126 69 151 72 313 32z m3648 7
c29 -11 79 -37 112 -58 67 -45 210 -183 198 -193 -14 -13 -231 -80 -324 -100
-130 -28 -397 -37 -495 -16 -90 20 -198 66 -285 124 -77 51 -98 74 -42 45 48
-24 179 -58 259 -67 59 -7 237 9 279 24 15 6 -2 10 -56 15 -102 10 -159 26
-243 68 l-69 35 229 6 c127 4 246 9 265 13 33 7 31 8 -46 29 -130 35 -130 38
-18 68 122 31 168 33 236 7z m-2756 -40 c80 -88 268 -192 489 -270 116 -41
240 -98 299 -139 l29 -20 31 24 c44 33 135 76 251 119 55 21 125 47 155 59
140 53 293 143 373 221 l48 47 -7 -38 c-24 -134 -106 -243 -265 -350 -25 -17
-137 -79 -250 -138 -113 -59 -235 -128 -270 -155 l-64 -48 -33 25 c-76 58
-146 98 -304 177 -312 157 -431 256 -495 411 -21 51 -36 115 -28 115 3 0 21
-18 41 -40z"/>
</g>
</svg>
