<?xml version="1.0" standalone="no"?>
<!DOCTYPE svg PUBLIC "-//W3C//DTD SVG 20010904//EN"
 "http://www.w3.org/TR/2001/REC-SVG-20010904/DTD/svg10.dtd">
<svg version="1.0" xmlns="http://www.w3.org/2000/svg"
 width="1536.000000pt" height="1024.000000pt" viewBox="0 0 1536.000000 1024.000000"
 preserveAspectRatio="xMidYMid meet">

<g transform="translate(0.000000,1024.000000) scale(0.100000,-0.100000)"
fill="#000000" stroke="none">
<path d="M7545 7582 c-190 -127 -246 -172 -385 -312 -82 -83 -145 -157 -185
-218 -56 -87 -61 -91 -80 -77 -21 15 -193 117 -262 156 -23 13 -44 21 -46 19
-11 -12 -160 -245 -188 -295 -17 -30 -33 -55 -36 -55 -2 0 -24 13 -48 30 -66
45 -240 134 -342 174 -111 44 -354 108 -391 104 -23 -3 -28 -10 -44 -72 -31
-119 -57 -284 -69 -425 -12 -138 -6 -450 10 -544 6 -34 5 -47 -3 -43 -235 105
-357 137 -670 171 l-59 7 6 -119 c14 -260 81 -524 193 -762 l54 -114 -235 5
c-129 3 -238 2 -240 -3 -8 -13 79 -266 133 -388 182 -406 482 -739 866 -962
94 -54 107 -64 91 -73 -111 -66 -279 -205 -393 -327 -46 -49 -81 -93 -78 -98
15 -24 237 -120 361 -156 418 -122 872 -112 1242 27 92 35 93 35 110 15 46
-52 278 -188 549 -323 161 -79 299 -144 309 -144 26 0 336 143 500 232 83 44
198 113 257 154 l107 73 55 -20 c333 -117 793 -130 1166 -34 135 35 298 97
397 152 l43 25 -19 26 c-70 97 -355 350 -438 390 -18 9 -33 19 -33 22 0 3 17
14 38 23 55 25 236 140 321 205 103 79 290 260 367 356 87 108 186 266 251
402 53 109 158 412 148 422 -3 3 -118 5 -256 3 l-251 -3 24 44 c69 124 153
355 188 513 22 105 50 317 50 387 0 45 -2 48 -22 44 -13 -3 -54 -8 -93 -11
-160 -15 -411 -86 -575 -163 -47 -22 -85 -39 -86 -39 -1 1 2 29 7 62 16 126
22 429 10 555 -17 173 -69 488 -86 517 0 1 -46 -7 -101 -18 -209 -42 -407
-114 -586 -214 -54 -30 -103 -55 -108 -55 -5 0 -15 10 -21 23 -22 43 -191 297
-198 297 -9 0 -139 -75 -237 -137 l-81 -51 -59 91 c-78 121 -312 356 -449 453
-106 75 -250 164 -262 164 -5 -1 -67 -40 -138 -88z m188 -119 c210 -131 427
-332 543 -503 96 -142 154 -262 209 -437 17 -53 -65 49 -148 185 -27 45 -52
81 -53 79 -2 -2 7 -36 20 -77 37 -117 75 -302 60 -289 -36 30 -274 414 -274
443 0 5 -2 7 -5 4 -6 -6 60 -251 102 -381 14 -43 23 -80 21 -83 -7 -6 -134
168 -192 265 -46 76 -66 118 -83 180 -2 8 -6 12 -8 9 -15 -14 52 -300 100
-430 24 -63 29 -85 17 -76 -30 24 -164 241 -219 352 l-54 111 5 -75 c12 -155
9 -408 -3 -395 -20 20 -121 299 -136 373 -4 17 -10 32 -13 32 -4 0 -25 -39
-46 -86 -50 -108 -140 -270 -171 -309 -28 -34 -41 -29 -24 9 17 38 1 46 -26
14 -13 -16 -26 -28 -28 -28 -3 0 14 48 37 108 66 167 88 228 78 217 -5 -5 -30
-39 -55 -75 -57 -81 -175 -220 -188 -220 -5 0 -2 15 6 33 61 136 152 407 136
407 -3 0 -17 -25 -30 -56 -13 -30 -59 -108 -101 -173 -111 -169 -124 -171 -55
-8 19 42 32 77 30 77 -2 0 -35 -39 -73 -87 -39 -49 -82 -99 -97 -113 l-27 -25
7 25 c9 30 84 270 90 288 10 28 -7 7 -71 -90 -74 -114 -124 -176 -124 -155 0
33 54 176 103 273 127 253 312 456 602 657 44 31 83 56 88 57 4 0 26 -12 50
-27z m1946 -625 c66 -358 50 -730 -50 -1148 -31 -130 -77 -286 -111 -378 -24
-63 -124 -191 -250 -319 -89 -90 -117 -111 -103 -75 4 9 29 105 57 212 27 107
70 269 95 360 100 365 184 760 162 760 -5 0 -9 -5 -9 -11 0 -21 -148 -405
-215 -556 -37 -84 -88 -190 -115 -235 -48 -85 -141 -220 -147 -214 -2 2 8 39
21 82 14 43 41 142 61 219 52 200 159 575 194 678 16 48 27 87 23 87 -4 0 -90
-170 -192 -377 -170 -346 -275 -541 -286 -530 -3 2 4 44 15 93 11 49 34 152
51 229 45 207 100 379 198 625 27 69 53 136 57 150 8 30 -173 -265 -339 -550
-32 -56 -60 -99 -63 -96 -8 7 46 257 82 384 18 64 47 150 64 191 17 41 31 78
31 84 0 6 -57 -49 -126 -122 -70 -72 -129 -130 -131 -127 -5 5 42 92 65 119
28 32 6 27 -42 -9 -36 -28 -45 -31 -37 -15 14 26 220 207 317 278 167 123 378
227 589 290 61 17 111 32 111 33 1 0 11 -51 23 -112z m-3846 62 c264 -89 522
-247 699 -427 57 -57 70 -78 82 -123 8 -30 13 -57 10 -59 -5 -5 -76 52 -178
143 l-80 71 29 -50 c16 -27 32 -54 36 -60 16 -22 99 -195 99 -207 0 -7 -50 39
-111 102 -89 93 -105 107 -84 70 14 -25 39 -70 55 -101 33 -65 116 -305 125
-364 6 -38 5 -39 -10 -20 -9 11 -35 52 -58 90 -164 280 -247 417 -247 408 0
-6 9 -40 20 -76 33 -106 78 -296 130 -547 27 -129 56 -264 64 -300 8 -35 14
-66 12 -68 -9 -8 -117 189 -266 487 -88 178 -163 322 -165 319 -2 -2 6 -30 17
-63 91 -271 265 -881 254 -892 -7 -7 -109 151 -164 252 -55 103 -195 431 -258
607 -27 75 -50 136 -51 134 -4 -4 35 -211 52 -281 9 -33 56 -186 106 -340 74
-227 189 -632 189 -663 0 -13 -153 146 -224 233 -86 106 -94 120 -134 245
-158 497 -202 978 -126 1400 20 113 23 120 42 120 9 0 70 -18 135 -40z m2946
-99 c22 -38 41 -74 41 -80 0 -5 -15 -20 -32 -32 -18 -12 -59 -45 -91 -72 -32
-27 -59 -48 -61 -46 -2 2 -11 29 -21 59 -10 30 -26 72 -37 94 -14 27 -16 42
-9 49 12 12 153 96 162 97 4 0 25 -31 48 -69z m-2053 13 c46 -25 86 -49 88
-53 3 -4 -4 -26 -15 -50 -11 -24 -29 -75 -40 -112 l-21 -69 -96 91 c-54 51
-96 96 -94 102 7 24 77 137 85 137 5 0 47 -21 93 -46z m209 -650 c77 -4 141
-12 157 -20 41 -21 63 -67 103 -219 44 -162 50 -179 61 -150 66 187 136 306
205 352 40 27 49 28 176 31 l133 4 0 -46 c0 -192 -182 -491 -378 -621 -23 -15
-42 -30 -42 -34 0 -3 13 -12 29 -19 46 -20 161 -122 229 -202 62 -74 148 -232
172 -315 10 -37 50 -249 50 -269 0 -5 -83 -7 -188 -4 -209 5 -219 8 -265 77
-25 37 -82 169 -106 243 -7 21 -16 40 -21 43 -5 3 -18 -25 -31 -62 -41 -126
-90 -230 -119 -258 -37 -36 -86 -43 -292 -44 l-148 -1 0 766 0 766 73 -6 c39
-3 131 -8 202 -12z m1545 -609 l0 -615 235 0 235 0 0 -139 0 -139 -117 -4
c-65 -2 -282 -4 -483 -3 l-365 0 0 720 c0 396 2 734 4 752 l3 32 67 4 c36 2
146 4 244 5 l177 2 0 -615z m-3454 465 c140 -28 263 -65 385 -116 l107 -45 20
-87 c11 -48 18 -89 16 -91 -2 -2 -14 4 -26 15 -24 21 -16 2 12 -31 10 -11 32
-56 50 -100 18 -44 35 -86 38 -94 5 -14 -130 76 -208 137 -34 26 -33 26 13
-38 121 -165 187 -259 187 -265 0 -15 -240 153 -302 213 -109 104 24 -67 174
-222 53 -56 92 -102 87 -104 -9 -4 -189 94 -265 144 -28 19 -54 34 -59 34 -4
0 26 -36 66 -81 l73 -81 -36 5 c-40 5 -53 11 -87 41 l-24 21 12 -22 c18 -35
14 -40 -31 -33 -81 14 -92 22 -136 115 -89 186 -145 369 -177 582 -8 57 -15
107 -15 113 0 14 14 13 126 -10z m5440 -37 c-25 -211 -98 -461 -190 -657 l-54
-114 -73 -4 c-41 -2 -75 -3 -76 -3 -1 1 9 18 22 38 34 49 31 55 -10 18 -39
-34 -111 -74 -125 -69 -5 2 13 30 40 62 27 33 48 62 46 64 -3 2 -43 -19 -90
-47 -93 -55 -149 -81 -174 -81 -9 0 40 57 109 128 125 127 227 244 199 227 -8
-5 -58 -41 -112 -82 -105 -79 -258 -183 -270 -183 -14 0 39 81 140 214 56 74
102 137 102 141 0 3 -23 -11 -50 -32 -28 -21 -73 -55 -100 -75 -27 -21 -51
-38 -54 -38 -2 0 9 41 25 91 21 63 39 101 60 121 16 17 27 33 24 36 -3 3 -11
0 -17 -6 -20 -20 -40 -15 -28 7 5 11 10 29 10 40 0 47 267 169 505 231 155 41
149 42 141 -27z m-5351 -948 c153 -10 480 -51 675 -87 l115 -20 100 -98 c184
-178 432 -354 652 -462 68 -33 125 -63 128 -68 12 -19 -52 -38 -101 -30 -129
21 -299 68 -429 120 -161 65 -486 229 -577 292 -114 79 156 -188 282 -279 108
-78 314 -185 500 -261 178 -72 247 -107 232 -116 -6 -4 -64 2 -129 14 -298 51
-529 134 -985 353 -98 47 -178 84 -178 82 0 -8 206 -169 285 -222 206 -137
478 -283 640 -342 50 -18 113 -42 140 -52 28 -10 65 -22 83 -25 18 -4 31 -12
29 -18 -5 -14 -67 -9 -124 10 -80 27 -69 7 32 -60 28 -18 57 -41 65 -51 14
-17 11 -18 -80 -11 -313 24 -658 143 -930 323 -137 91 -214 153 -328 266 -199
196 -330 391 -446 664 -19 44 -33 83 -31 85 6 5 257 0 380 -7z m5555 -2 c0
-26 -99 -235 -160 -337 -153 -256 -391 -492 -671 -666 -233 -145 -402 -217
-662 -281 -116 -29 -370 -59 -384 -46 -10 11 27 45 91 85 69 41 60 48 -34 28
-112 -23 -95 -3 35 44 333 119 772 387 975 594 30 31 51 56 47 56 -4 0 -36
-20 -71 -44 -231 -158 -605 -332 -846 -392 -99 -25 -290 -57 -297 -50 -2 2 72
43 164 91 280 146 370 205 546 359 80 71 206 210 207 229 0 4 -28 -14 -62 -40
-107 -81 -288 -198 -398 -256 -176 -93 -451 -173 -512 -148 -16 6 -28 14 -28
18 0 5 56 37 123 71 232 118 477 295 692 503 l110 106 120 17 c396 56 593 72
898 72 89 0 117 -3 117 -13z m-3004 -617 c11 -9 23 -11 30 -5 6 5 23 -1 45
-15 30 -21 36 -22 48 -9 7 8 16 11 20 6 3 -4 23 -16 44 -26 l38 -17 -7 37 -7
37 57 -32 c42 -25 56 -29 56 -17 0 22 7 19 58 -26 36 -31 48 -37 50 -25 3 14
6 14 32 1 16 -8 38 -15 49 -15 27 0 125 -53 179 -97 51 -41 66 -63 98 -140
l24 -58 -2 42 c-3 61 8 62 22 2 15 -62 8 -140 -20 -231 -26 -86 -40 -94 -40
-26 -1 51 -23 164 -34 176 -3 3 -6 -19 -6 -50 0 -77 -32 -192 -78 -285 -41
-81 -125 -193 -144 -193 -7 0 -5 7 4 18 34 41 73 169 84 278 7 70 -4 236 -15
229 -5 -2 -11 -40 -14 -83 -6 -89 -45 -200 -118 -334 -40 -73 -138 -194 -124
-153 4 11 17 47 30 80 33 88 57 236 53 335 l-3 85 -53 -160 c-52 -157 -122
-317 -160 -364 l-19 -23 -6 88 c-6 78 -47 261 -65 289 -4 6 -9 -6 -12 -25 -5
-29 -9 -17 -29 78 -14 61 -27 110 -30 106 -6 -6 -25 -206 -37 -386 -6 -88 -9
-106 -20 -97 -26 22 -126 242 -176 389 l-29 85 6 -125 c7 -145 24 -253 54
-329 11 -30 18 -57 16 -60 -3 -3 -34 24 -68 60 -95 97 -181 262 -210 404 l-14
70 -8 -59 c-12 -94 0 -223 30 -312 14 -43 31 -83 36 -89 23 -23 6 -24 -25 0
-76 58 -115 158 -138 354 l-12 106 -13 -45 c-7 -25 -16 -82 -20 -127 -3 -46
-9 -83 -14 -83 -4 0 -17 12 -28 26 -12 16 -21 21 -21 13 -1 -24 -48 97 -55
143 -6 34 -9 39 -15 23 -14 -37 -23 10 -18 91 6 83 0 80 -34 -13 -25 -73 -44
-83 -34 -20 11 75 80 199 140 253 45 41 234 164 252 164 3 0 -2 -10 -10 -22
-24 -34 -19 -42 13 -19 62 44 186 92 153 59 -7 -7 -12 -16 -12 -21 0 -5 29 12
65 37 36 25 69 46 72 46 3 0 3 -9 0 -20 -7 -26 -1 -25 53 10 52 33 60 35 86
16z m-866 -570 c7 -89 42 -246 55 -246 2 0 3 43 2 94 -1 65 2 99 11 107 10 11
12 9 13 -6 3 -77 54 -255 73 -255 1 0 -3 28 -10 63 -23 119 -24 128 -14 122 6
-3 10 -11 10 -17 0 -25 75 -199 97 -224 18 -22 23 -24 18 -9 -4 11 -9 35 -12
53 -5 31 -3 29 73 -46 92 -92 178 -138 333 -180 85 -22 115 -26 261 -26 146 0
176 3 261 26 188 51 373 168 453 288 l16 24 0 -24 c0 -14 -4 -41 -10 -59 -15
-55 -5 -47 35 24 48 85 73 166 89 285 l13 95 12 -42 c12 -43 1 -215 -18 -298
-6 -22 -8 -41 -6 -44 6 -5 57 108 75 168 19 58 23 38 11 -48 -22 -164 -123
-296 -329 -431 -102 -67 -552 -300 -581 -300 -22 0 -322 144 -437 210 -154 89
-281 179 -352 250 -105 106 -182 289 -182 431 0 61 16 136 27 125 3 -2 9 -52
13 -110z m2813 -147 c76 -39 233 -148 317 -221 l82 -71 -48 -19 c-88 -34 -277
-85 -374 -102 -135 -23 -393 -32 -515 -17 -162 20 -365 75 -365 99 0 16 35 41
76 56 45 16 183 7 284 -18 30 -8 56 -13 58 -11 5 4 -87 45 -176 77 -77 28 -84
32 -64 41 32 15 168 -5 304 -43 60 -18 112 -29 115 -27 7 8 -151 81 -222 103
-55 18 -57 19 -30 25 57 12 143 9 251 -10 60 -11 118 -23 128 -27 12 -5 17 -4
13 3 -4 6 -43 25 -87 44 -44 18 -80 36 -80 41 0 21 93 0 239 -53 71 -26 54 -4
-36 47 -74 41 -74 38 22 81 62 27 57 27 108 2z m-3764 -8 l45 -18 -25 -16
c-13 -8 -42 -24 -64 -36 -50 -25 -46 -26 50 -1 81 21 180 27 189 11 3 -5 -19
-21 -50 -37 -30 -15 -57 -32 -60 -36 -7 -11 -3 -10 47 8 52 19 293 32 302 17
4 -6 -20 -18 -56 -28 -62 -17 -193 -77 -212 -97 -11 -12 2 -9 85 21 70 25 196
51 283 58 63 6 68 5 65 -13 -2 -14 -37 -29 -148 -67 -80 -26 -149 -53 -155
-59 -7 -8 -4 -9 9 -4 41 14 197 37 292 43 107 6 150 1 157 -20 2 -6 2 -2 0 11
-3 21 -2 21 48 -9 62 -39 57 -46 -56 -84 -250 -83 -597 -97 -878 -34 -135 30
-339 98 -334 112 12 41 366 298 407 296 8 0 35 -8 59 -18z"/>
</g>
</svg>
