<?xml version="1.0" standalone="no"?>
<!DOCTYPE svg PUBLIC "-//W3C//DTD SVG 20010904//EN"
 "http://www.w3.org/TR/2001/REC-SVG-20010904/DTD/svg10.dtd">
<svg version="1.0" xmlns="http://www.w3.org/2000/svg"
 width="1024.000000pt" height="1024.000000pt" viewBox="0 0 1024.000000 1024.000000"
 preserveAspectRatio="xMidYMid meet">

<g transform="translate(0.000000,1024.000000) scale(0.100000,-0.100000)"
fill="#000000" stroke="none">
<path d="M3340 8079 c-123 -10 -335 -46 -361 -59 -10 -6 -27 -23 -38 -39 -19
-26 -21 -44 -21 -160 l0 -131 -99 0 c-148 0 -212 -30 -250 -120 l-21 -49 0
-1413 c0 -1004 3 -1425 11 -1453 15 -55 82 -120 139 -135 35 -9 84 -10 215 -1
543 37 1099 22 1735 -45 l155 -17 46 -42 c59 -55 108 -80 187 -95 127 -25 244
5 330 85 l57 52 100 12 c546 62 1167 85 1625 60 289 -16 354 -17 392 -6 38 10
95 63 119 108 19 37 19 72 19 1472 l0 1434 -23 44 c-13 24 -43 58 -66 74 -40
28 -49 30 -157 33 l-114 4 0 124 c0 190 -10 201 -212 234 -602 99 -1157 -3
-1693 -312 -86 -50 -220 -142 -257 -176 l-27 -25 -53 40 c-323 247 -783 437
-1183 488 -152 20 -419 26 -555 14z m510 -205 c284 -37 529 -115 789 -250 132
-69 305 -180 356 -229 l31 -30 2 -1312 c2 -802 -1 -1313 -7 -1313 -5 0 -53 28
-107 62 -210 132 -495 252 -754 319 -219 56 -368 73 -630 72 -148 -1 -270 -6
-328 -15 -51 -8 -95 -12 -97 -9 -8 8 -6 2691 3 2691 4 0 36 5 72 11 170 28
466 29 670 3z m3180 2 c52 -9 98 -16 103 -16 4 0 7 -606 7 -1346 l0 -1347 -52
6 c-433 50 -787 22 -1154 -89 -208 -63 -444 -174 -624 -293 -47 -31 -88 -57
-92 -59 -5 -2 -8 590 -8 1316 l0 1320 43 37 c52 45 207 149 305 203 l72 41 0
-670 c0 -736 -2 -713 60 -739 45 -19 72 -2 219 134 l125 115 79 -72 c164 -149
208 -181 244 -181 21 0 41 8 56 22 l22 23 5 802 5 802 50 7 c81 10 432 0 535
-16z m-758 -688 c2 -370 3 -674 2 -675 0 -2 -43 36 -95 83 -52 47 -104 90
-116 96 -37 18 -72 0 -164 -89 -49 -47 -91 -84 -94 -81 -3 2 -5 272 -5 598
l-1 594 34 17 c66 34 361 123 424 128 9 1 12 -162 15 -671z m-3352 -919 l0
-1241 29 -29 c35 -34 47 -35 197 -12 158 24 558 24 714 0 156 -25 331 -67 475
-117 116 -40 420 -181 460 -215 l20 -16 -20 5 c-73 19 -562 62 -875 77 -347
17 -972 3 -1152 -27 l-38 -6 0 1411 0 1411 95 0 95 0 0 -1241z m4580 -169 l0
-1409 -27 4 c-169 29 -848 44 -1193 26 -250 -13 -479 -33 -705 -61 -82 -11
-151 -18 -153 -16 -7 7 216 125 318 169 210 89 403 143 622 174 171 23 547 24
715 0 166 -23 179 -23 214 12 l29 29 0 1241 0 1241 90 0 90 0 0 -1410z"/>
<path d="M7910 3499 c-39 -16 -59 -39 -70 -80 -38 -140 164 -205 227 -74 15
32 16 40 3 78 -25 69 -94 102 -160 76z"/>
<path d="M1349 3495 c-1 0 -3 -240 -5 -532 l-3 -533 115 0 114 0 0 246 c0 214
2 245 14 234 8 -6 86 -117 172 -246 l158 -234 133 0 c73 0 133 3 133 7 0 3 -6
14 -14 22 -7 9 -93 134 -190 278 l-176 262 170 242 c93 133 167 245 165 249
-2 4 -54 8 -114 9 -130 1 -96 31 -301 -263 l-145 -208 -3 231 -2 230 -110 3
c-61 2 -111 3 -111 3z"/>
<path d="M3938 3492 l-98 -3 0 -529 0 -530 105 0 105 0 0 171 c0 130 3 170 12
167 7 -3 61 -74 121 -159 59 -85 114 -160 121 -167 9 -9 45 -12 135 -10 l122
3 -44 60 c-24 33 -92 126 -151 207 -59 81 -104 153 -101 159 4 5 65 80 136
165 71 85 129 159 129 165 0 5 -49 9 -114 9 l-114 0 -124 -146 -123 -146 -3
288 c-1 159 -6 291 -10 294 -4 3 -51 4 -104 2z"/>
<path d="M7070 2963 l0 -533 320 0 320 0 0 105 0 105 -210 0 -210 0 -2 288
c-1 158 -2 349 -3 425 l0 138 -108 2 -107 2 0 -532z"/>
<path d="M8214 3491 c-2 -2 -4 -242 -4 -533 l0 -528 95 0 95 0 0 40 c0 22 3
40 6 40 3 0 16 -13 30 -29 53 -63 173 -85 283 -52 61 19 81 31 130 80 87 87
106 141 106 306 0 121 -2 134 -28 189 -42 90 -88 140 -162 177 -105 51 -219
45 -300 -16 l-45 -35 -2 181 -3 181 -98 1 c-54 1 -101 0 -103 -2z m465 -490
c104 -74 98 -308 -9 -379 -30 -20 -45 -23 -97 -20 -55 3 -67 8 -98 38 -51 49
-69 104 -63 194 6 87 30 141 79 174 46 32 138 28 188 -7z"/>
<path d="M3268 3210 c-205 -35 -333 -215 -315 -443 14 -187 125 -315 302 -348
134 -25 258 12 351 105 71 72 103 143 111 251 13 180 -72 344 -210 405 -37 17
-155 42 -182 39 -5 -1 -31 -5 -57 -9z m152 -202 c63 -43 89 -101 90 -198 0
-127 -69 -210 -175 -210 -100 0 -162 65 -172 179 -10 105 25 191 91 232 44 27
123 26 166 -3z"/>
<path d="M5689 3210 c-176 -30 -275 -184 -210 -325 35 -77 88 -107 265 -151
115 -29 146 -48 146 -89 0 -55 -84 -88 -168 -66 -40 11 -82 50 -82 77 0 11
-21 14 -95 14 -90 0 -95 -1 -95 -21 0 -40 23 -98 52 -134 98 -118 364 -139
496 -39 95 73 117 229 45 322 -33 43 -88 68 -232 104 -119 29 -151 47 -151 82
0 43 41 69 106 68 58 -2 99 -24 112 -62 l11 -30 85 0 86 0 0 37 c0 53 -36 120
-83 154 -67 49 -195 75 -288 59z"/>
<path d="M2160 3188 c0 -12 81 -224 239 -624 l52 -131 -57 -139 c-31 -77 -58
-145 -61 -152 -4 -10 18 -12 103 -10 l108 3 32 75 c24 58 189 492 372 978 3
10 -19 12 -103 10 l-107 -3 -84 -245 c-47 -135 -87 -252 -90 -260 -3 -8 -34
66 -69 165 -35 99 -76 216 -92 260 l-28 80 -107 3 c-83 2 -108 0 -108 -10z"/>
<path d="M4632 2908 c3 -282 4 -295 26 -344 45 -99 127 -148 252 -148 62 -1
84 4 126 26 27 15 56 34 63 42 21 25 31 19 31 -19 l0 -35 95 0 95 0 0 385 0
385 -100 0 -100 0 0 -238 c0 -227 -1 -240 -22 -282 -37 -72 -119 -100 -192
-65 -59 28 -61 35 -66 320 l-5 260 -103 3 -103 3 3 -293z"/>
<path d="M6202 2903 c3 -290 4 -299 27 -345 48 -97 125 -142 246 -142 86 0
130 16 194 69 l31 27 0 -41 0 -41 95 0 95 0 0 385 0 386 -102 -3 -103 -3 -5
-255 c-6 -285 -7 -292 -77 -325 -44 -21 -115 -16 -145 11 -44 39 -48 69 -48
329 l0 245 -106 0 -105 0 3 -297z"/>
<path d="M7857 3193 c-4 -3 -7 -177 -7 -385 l0 -378 105 0 105 0 0 385 0 385
-98 0 c-54 0 -102 -3 -105 -7z"/>
</g>
</svg>
